<svg width="79" height="30" viewBox="0 0 79 30" fill="none" xmlns="http://www.w3.org/2000/svg">
  <path
    d="M41.5026 21.17C40.7093 21.17 40.018 21.0227 39.4286 20.728C38.8506 20.422 38.403 19.997 38.0856 19.453C37.7796 18.8977 37.6266 18.246 37.6266 17.498V12.092C37.6266 11.344 37.7796 10.698 38.0856 10.154C38.403 9.59867 38.8506 9.17367 39.4286 8.879C40.018 8.573 40.7093 8.42 41.5026 8.42C42.3073 8.42 42.9986 8.573 43.5766 8.879C44.1546 9.17367 44.5966 9.59867 44.9026 10.154C45.22 10.698 45.3786 11.3383 45.3786 12.075V17.498C45.3786 18.246 45.22 18.8977 44.9026 19.453C44.5966 19.997 44.1546 20.422 43.5766 20.728C42.9986 21.0227 42.3073 21.17 41.5026 21.17ZM41.5026 19.3C42.0806 19.3 42.517 19.147 42.8116 18.841C43.1063 18.5237 43.2536 18.076 43.2536 17.498V12.092C43.2536 11.5027 43.1063 11.055 42.8116 10.749C42.517 10.443 42.0806 10.29 41.5026 10.29C40.9246 10.29 40.4883 10.443 40.1936 10.749C39.899 11.055 39.7516 11.5027 39.7516 12.092V17.498C39.7516 18.076 39.899 18.5237 40.1936 18.841C40.4996 19.147 40.936 19.3 41.5026 19.3ZM50.897 21.17C49.9676 21.17 49.214 20.847 48.636 20.201C48.0693 19.555 47.786 18.688 47.786 17.6V15.067C47.786 13.9677 48.0693 13.095 48.636 12.449C49.2026 11.803 49.9563 11.48 50.897 11.48C51.6676 11.48 52.2796 11.701 52.733 12.143C53.1863 12.5737 53.413 13.1687 53.413 13.928L52.937 13.435H53.43L53.362 11.208V8.59H55.487V21H53.413V19.215H52.937L53.413 18.722C53.413 19.4813 53.1863 20.082 52.733 20.524C52.2796 20.9547 51.6676 21.17 50.897 21.17ZM51.645 19.334C52.189 19.334 52.6083 19.1753 52.903 18.858C53.209 18.5293 53.362 18.076 53.362 17.498V15.152C53.362 14.574 53.209 14.1263 52.903 13.809C52.6083 13.4803 52.189 13.316 51.645 13.316C51.101 13.316 50.676 13.4747 50.37 13.792C50.064 14.1093 49.911 14.5627 49.911 15.152V17.498C49.911 18.0873 50.064 18.5407 50.37 18.858C50.676 19.1753 51.101 19.334 51.645 19.334ZM58.0813 21V19.062H61.3453V13.571H58.5063V11.65H63.3853V19.062H66.2753V21H58.0813ZM62.1953 10.086C61.7647 10.086 61.4247 9.97833 61.1753 9.763C60.926 9.53633 60.8013 9.236 60.8013 8.862C60.8013 8.488 60.926 8.19333 61.1753 7.978C61.4247 7.75133 61.7647 7.638 62.1953 7.638C62.626 7.638 62.966 7.75133 63.2153 7.978C63.4647 8.19333 63.5893 8.488 63.5893 8.862C63.5893 9.236 63.4647 9.53633 63.2153 9.763C62.966 9.97833 62.626 10.086 62.1953 10.086ZM68.2917 21V11.65H70.3657V13.435H70.9437L70.3657 13.928C70.3657 13.1573 70.5867 12.5567 71.0287 12.126C71.482 11.6953 72.0997 11.48 72.8817 11.48C73.7997 11.48 74.5307 11.786 75.0747 12.398C75.63 13.01 75.9077 13.8317 75.9077 14.863V21H73.7827V15.084C73.7827 14.5173 73.6354 14.081 73.3407 13.775C73.046 13.469 72.6324 13.316 72.0997 13.316C71.5784 13.316 71.1647 13.4747 70.8587 13.792C70.564 14.1093 70.4167 14.5627 70.4167 15.152V21H68.2917Z"
    fill="white" />
  <g clip-path="url(#clip0_11_2)">
    <path
      d="M4.00266 0L6.65599 9.23375L8.75732 11.2038V11.9237L10.0573 14.3288C11.132 12.4163 13.8493 11.7488 15.8067 13.1175L16.076 13.305L16.3427 13.1175C18.3027 11.7488 21.02 12.4163 22.096 14.3288L23.396 11.9212V11.0588L25.3427 9.23375L27.9987 0L23.1547 2.325V6.39625C22.2813 5.9025 19.18 4.2825 16.0773 4.2825C12.752 4.2825 9.42799 6.14375 8.84799 6.485V2.32375L4.00266 0ZM12.1507 12.7863C12.0939 12.7859 12.0377 12.7961 11.9851 12.8161C11.9326 12.8362 11.8848 12.8657 11.8444 12.9031C11.804 12.9405 11.7719 12.9849 11.7499 13.034C11.7279 13.083 11.7163 13.1356 11.716 13.1887V14.4362C11.716 14.77 12.0093 15.0412 12.3693 15.0412H13.116C13.5227 15.0412 13.908 14.8913 14.196 14.6263C14.3371 14.4962 14.4493 14.3412 14.526 14.1702C14.6027 13.9991 14.6423 13.8155 14.6427 13.63V13.1887C14.6423 13.1353 14.6307 13.0824 14.6085 13.0332C14.5863 12.9839 14.554 12.9393 14.5134 12.9018C14.4728 12.8643 14.4246 12.8346 14.3718 12.8146C14.3189 12.7946 14.2623 12.7845 14.2053 12.785L12.1507 12.7863ZM19.2053 13.2763C19.0238 13.2753 18.8492 13.3418 18.72 13.4613C18.5908 13.5809 18.5174 13.7436 18.516 13.9137C18.516 14.2637 18.8253 14.5512 19.2053 14.5512C19.2953 14.5519 19.3846 14.5359 19.468 14.5043C19.5514 14.4726 19.6274 14.4258 19.6915 14.3666C19.7556 14.3074 19.8067 14.2369 19.8418 14.1592C19.8769 14.0815 19.8953 13.9981 19.896 13.9137C19.8955 13.8293 19.8772 13.7458 19.8421 13.6681C19.8071 13.5903 19.7561 13.5198 19.6919 13.4605C19.6277 13.4013 19.5517 13.3545 19.4682 13.3229C19.3847 13.2913 19.2954 13.2754 19.2053 13.2763ZM8.75732 13.305L6.80399 20.075L8.79999 23.7625L10.6333 17.3837L10.896 17.2625L8.75732 13.305ZM23.396 13.305L21.2573 17.2613L21.5213 17.3825L23.3547 23.7625L25.3493 20.0738L23.396 13.305ZM16.076 15.5613L13.6387 16.69L11.44 27.7437L16.076 30L20.7107 27.7437L18.516 16.69L16.076 15.5613ZM12.8907 17.0362L11.1973 17.8175L8.99199 25.4888L10.9507 26.8L12.8907 17.0362ZM19.264 17.0362L21.2027 26.7987L23.1587 25.4888L20.956 17.8175L19.264 17.0362ZM15.2427 17.1413H16.9493V17.705C16.9495 17.8086 16.9276 17.9113 16.8848 18.0068C16.8419 18.1024 16.7791 18.1889 16.7 18.2613C16.5395 18.4108 16.3222 18.4944 16.096 18.4938C15.87 18.493 15.6533 18.4096 15.492 18.2613C15.4129 18.1889 15.35 18.1024 15.3072 18.0068C15.2644 17.9113 15.2424 17.8086 15.2427 17.705V17.1413Z"
      fill="#9F6CFE" />
  </g>
  <defs>
    <clipPath id="clip0_11_2">
      <rect width="32" height="30" fill="white" />
    </clipPath>
  </defs>
</svg>